<svg xmlns="http://www.w3.org/2000/svg" enable-background="new 0 0 64 64" viewBox="0 0 64 64" id="radiation"><path fill="#2b2e63" d="M49.8,24.5c-2-4.8-5.7-8.5-10.5-10.4c-4.8-2-10-1.9-14.8,0.1c-4.8,2-8.5,5.7-10.4,10.5c-2,4.8-1.9,10,0.1,14.8c3.1,7.4,10.3,11.9,17.9,11.9c2.5,0,5-0.5,7.4-1.5c4.8-2,8.5-5.7,10.4-10.5C51.8,34.6,51.8,29.3,49.8,24.5z M48.1,38.6c-1.8,4.3-5.1,7.7-9.4,9.5c-8.8,3.7-19.1-0.5-22.8-9.3c-1.8-4.3-1.8-9-0.1-13.3s5.1-7.7,9.4-9.5c2.2-0.9,4.4-1.4,6.7-1.4c2.2,0,4.5,0.4,6.6,1.3c4.3,1.8,7.7,5.1,9.5,9.4C49.8,29.6,49.9,34.3,48.1,38.6z"></path><path fill="#f9af48" d="M48,25.3c-1.8-4.3-5.2-7.6-9.5-9.4c-2.1-0.9-4.4-1.3-6.6-1.3c-2.3,0-4.6,0.5-6.7,1.4c-4.3,1.8-7.6,5.2-9.4,9.5s-1.7,9,0.1,13.3c3.7,8.9,13.9,13,22.8,9.3c4.3-1.8,7.6-5.1,9.4-9.5C49.9,34.3,49.8,29.6,48,25.3z M30.2,33.5c0,3-2.4,5.4-5.4,5.4c-3,0-5.4-2.4-5.4-5.4v-7.5c0-0.5,0.4-1,1-1c0.5,0,1,0.4,1,1v7.5c0,1.9,1.6,3.5,3.5,3.5c1.9,0,3.5-1.6,3.5-3.5v-7.5c0-0.5,0.4-1,1-1c0.5,0,1,0.4,1,1V33.5z M44.5,26.4l-4.3,11.9c-0.1,0.4-0.5,0.6-0.9,0.6h-1.6c-0.4,0-0.8-0.3-0.9-0.7l-4-11.9c-0.2-0.5,0.1-1.1,0.6-1.2c0.5-0.2,1,0.1,1.2,0.6L38.4,37h0.3l4-11.3c0.2-0.5,0.7-0.8,1.2-0.6C44.5,25.3,44.7,25.9,44.5,26.4z"></path><path fill="#ed9b3a" d="M48,25.3c-1.8-4.3-5.2-7.6-9.5-9.4c-2.1-0.9-4.4-1.3-6.6-1.3c-2.3,0-4.6,0.5-6.7,1.4c-4.3,1.8-7.6,5.2-9.4,9.5s-1.7,9,0.1,13.3c3.7,8.9,13.9,13,22.8,9.3c4.3-1.8,7.6-5.1,9.4-9.5C49.9,34.3,49.8,29.6,48,25.3z M46.7,38c-1.6,3.9-4.6,7-8.6,8.6c-2,0.8-4,1.2-6.1,1.2c-6.4,0-12.2-3.8-14.7-9.8c-1.6-3.9-1.6-8.2,0-12.2c1.6-3.9,4.6-7,8.6-8.6c2-0.8,4.1-1.2,6.1-1.2c2.1,0,4.1,0.4,6,1.2c3.9,1.6,7,4.6,8.7,8.6C48.3,29.8,48.3,34.1,46.7,38z"></path><path fill="#2b2e63" d="M11.5 40.6c-.2-.5-.8-.7-1.3-.5l-9.5 4c-.5.2-.7.8-.5 1.3.2.4.5.6.9.6.1 0 .3 0 .4-.1l9.5-4C11.5 41.6 11.7 41.1 11.5 40.6zM15 47.8l-3.6 3.7c-.4.4-.4 1 0 1.4.2.2.4.3.7.3.2 0 .5-.1.7-.3l3.6-3.7c.4-.4.4-1 0-1.4C16 47.4 15.4 47.4 15 47.8zM23.6 52.6c-.5-.2-1.1 0-1.3.5l-3.9 9.6c-.2.5 0 1.1.5 1.3.1 0 .2.1.4.1.4 0 .7-.2.9-.6l3.9-9.6C24.3 53.3 24.1 52.8 23.6 52.6zM32.1 54.2C32.1 54.2 32.1 54.2 32.1 54.2c-.5 0-1 .4-1 1l0 5.2c0 .5.4 1 1 1 0 0 0 0 0 0 .5 0 1-.4 1-1l0-5.2C33.1 54.6 32.6 54.2 32.1 54.2zM41.9 53c-.2-.5-.8-.7-1.3-.5-.5.2-.7.8-.5 1.3l4 9.5c.2.4.5.6.9.6.1 0 .3 0 .4-.1.5-.2.7-.8.5-1.3L41.9 53zM49.1 47.6c-.4-.4-1-.4-1.4 0-.4.4-.4 1 0 1.4l3.7 3.6c.2.2.4.3.7.3.2 0 .5-.1.7-.3.4-.4.4-1 0-1.4L49.1 47.6zM63.4 43.8l-9.6-3.9c-.5-.2-1.1 0-1.3.5-.2.5 0 1.1.5 1.3l9.6 3.9c.1 0 .2.1.4.1.4 0 .7-.2.9-.6C64.1 44.6 63.9 44 63.4 43.8zM60.4 30.9l-5.2 0c-.5 0-1 .4-1 1 0 .5.4 1 1 1 0 0 0 0 0 0l5.2 0c.5 0 1-.4 1-1C61.3 31.4 60.9 30.9 60.4 30.9 60.4 30.9 60.4 30.9 60.4 30.9zM52.5 23.4c.2.4.5.6.9.6.1 0 .3 0 .4-.1l9.5-4c.5-.2.7-.8.5-1.3-.2-.5-.8-.7-1.3-.5l-9.5 4C52.5 22.4 52.3 22.9 52.5 23.4zM48.3 16.5c.2 0 .5-.1.7-.3l3.6-3.7c.4-.4.4-1 0-1.4-.4-.4-1-.4-1.4 0l-3.6 3.7c-.4.4-.4 1 0 1.4C47.8 16.4 48.1 16.5 48.3 16.5zM40.4 11.4c.1 0 .2.1.4.1.4 0 .7-.2.9-.6l3.9-9.6c.2-.5 0-1.1-.5-1.3-.5-.2-1.1 0-1.3.5l-3.9 9.6C39.7 10.7 39.9 11.2 40.4 11.4zM31.9 9.8C31.9 9.8 31.9 9.8 31.9 9.8c.5 0 1-.4 1-1l0-5.2c0-.5-.4-1-1-1-.5 0-1 .4-1 1l0 5.2C30.9 9.4 31.4 9.8 31.9 9.8zM22.1 11c.2.4.5.6.9.6.1 0 .3 0 .4-.1.5-.2.7-.8.5-1.3l-4-9.5c-.2-.5-.8-.7-1.3-.5-.5.2-.7.8-.5 1.3L22.1 11zM14.9 16.4c.2.2.4.3.7.3.2 0 .5-.1.7-.3.4-.4.4-1 0-1.4l-3.7-3.6c-.4-.4-1-.4-1.4 0-.4.4-.4 1 0 1.4L14.9 16.4zM.6 20.2l9.6 3.9c.1 0 .2.1.4.1.4 0 .7-.2.9-.6.2-.5 0-1.1-.5-1.3l-9.6-3.9c-.5-.2-1.1 0-1.3.5C-.1 19.4.1 20 .6 20.2zM8.8 31.1l-5.2 0c-.5 0-1 .4-1 1 0 .5.4 1 1 1 0 0 0 0 0 0l5.2 0c.5 0 1-.4 1-1C9.8 31.6 9.3 31.1 8.8 31.1 8.8 31.1 8.8 31.1 8.8 31.1zM30.2 26.1v7.5c0 3-2.4 5.4-5.4 5.4-3 0-5.4-2.4-5.4-5.4v-7.5c0-.5.4-1 1-1 .5 0 1 .4 1 1v7.5c0 1.9 1.6 3.5 3.5 3.5 1.9 0 3.5-1.6 3.5-3.5v-7.5c0-.5.4-1 1-1C29.8 25.1 30.2 25.5 30.2 26.1zM44.5 26.4l-4.3 11.9c-.1.4-.5.6-.9.6h-1.6c-.4 0-.8-.3-.9-.7l-4-11.9c-.2-.5.1-1.1.6-1.2.5-.2 1 .1 1.2.6L38.4 37h.3l4-11.3c.2-.5.7-.8 1.2-.6C44.5 25.3 44.7 25.9 44.5 26.4z"></path></svg>