<svg xmlns="http://www.w3.org/2000/svg" width="655.359" height="655.359" fill-rule="evenodd" clip-rule="evenodd" image-rendering="optimizeQuality" shape-rendering="geometricPrecision" text-rendering="geometricPrecision" viewBox="0 0 6.827 6.827" id="temperature"><path fill="#bdbdbd" d="M2.984 1.273a.429.429 0 0 1 .859 0l.016 3.288a.774.774 0 0 1-.446 1.412.774.774 0 0 1-.445-1.413l.016-3.287z"></path><path fill="#e64a19" d="M3.697 4.712a.553.553 0 1 1-.573.012V3.233h.573v1.479z"></path><path fill="#d14519" d="M3.697 4.712a.553.553 0 0 1-.277 1.032h-.01V3.233h.287v1.479z"></path><path fill="#616161" d="M3.85 2.745v.096h-.547c-.065 0-.084-.021-.084-.048s.02-.048.084-.048h.547zm0-.448v.097h-.547c-.065 0-.084-.022-.084-.049 0-.026.02-.048.084-.048h.547zm0-.448v.097h-.547c-.065 0-.084-.022-.084-.048 0-.027.02-.049.084-.049h.547zm0-.447v.096h-.547c-.065 0-.084-.021-.084-.048s.02-.048.084-.048h.547z"></path><path fill="none" d="M0 0h6.827v6.827H0z"></path></svg>