<svg xmlns="http://www.w3.org/2000/svg" viewBox="0 0 32 32" id="visible"><path fill="#e1f5fe" d="M29,16s-6,9-13,9S3,16,3,16c0,0,6-9,13-9s13,9,13,9Z"></path><path fill="#b3e5fc" d="M29,16s-6-9-13-9v18c7,0,13-9,13-9Z"></path><rect width="10" height="10" x="11" y="11" fill="#4fc3f7" rx="5" ry="5"></rect><rect width="4" height="4" x="14" y="14" fill="#29b6f6" rx="2" ry="2"></rect><g><path fill="#1e88e5" d="M16,22c-3.309,0-6-2.691-6-6s2.691-6,6-6,6,2.691,6,6-2.691,6-6,6ZM16,12c-2.206,0-4,1.794-4,4s1.794,4,4,4,4-1.794,4-4-1.794-4-4-4Z"></path><path fill="#1e88e5" d="M16,26c-7.45,0-13.575-9.06-13.832-9.445-.224-.336-.224-.773,0-1.109.257-.386,6.382-9.445,13.832-9.445s13.575,9.06,13.832,9.445c.224.336.224.773,0,1.109-.257.386-6.382,9.445-13.832,9.445ZM4.229,16c1.407,1.897,6.357,8,11.771,8s10.363-6.103,11.771-8c-1.407-1.897-6.357-8-11.771-8s-10.363,6.103-11.771,8Z"></path></g></svg>